<svg width="1127" height="178" viewBox="0 0 1127 178" fill="none" xmlns="http://www.w3.org/2000/svg">
<path d="M118 58C151.137 58 178 84.8629 178 118C178 151.137 151.137 178 118 178C84.8629 178 58 151.137 58 118C58 84.8629 84.8629 58 118 58Z" fill="url(#paint0_linear_44_29)"/>
<path d="M-9.06133e-07 70C-1.19583e-06 63.3726 5.42492 57.8793 11.9202 59.196C15.6912 59.9604 19.389 61.0877 22.961 62.5672C30.2405 65.5825 36.8549 70.0021 42.4264 75.5736C47.9979 81.1451 52.4175 87.7595 55.4328 95.039C58.4481 102.319 60 110.121 60 118C60 125.879 58.4481 133.681 55.4328 140.961C52.4175 148.241 47.9979 154.855 42.4264 160.426C36.8549 165.998 30.2405 170.417 22.961 173.433C19.389 174.912 15.6912 176.04 11.9202 176.804C5.42493 178.121 1.06737e-07 172.627 2.38403e-07 166L1.19201e-06 118L-9.06133e-07 70Z" fill="url(#paint1_linear_44_29)"/>
<path d="M70 9.44166e-06C63.3726 1.0021e-05 57.879 5.42528 59.1958 11.9206C61.5215 23.3922 67.1736 34.0264 75.5736 42.4264C86.8258 53.6786 102.087 60 118 60C133.913 60 149.174 53.6786 160.426 42.4264C168.826 34.0264 174.478 23.3922 176.804 11.9206C178.121 5.42528 172.627 7.41592e-06 166 7.15259e-06L118 5.24537e-06L70 9.44166e-06Z" fill="url(#paint2_linear_44_29)"/>
<path d="M48 0C54.6274 0 60.1207 5.42492 58.804 11.9202C58.0396 15.6912 56.9123 19.389 55.4328 22.961C52.4175 30.2405 47.9979 36.8549 42.4264 42.4264C36.8549 47.9979 30.2405 52.4175 22.961 55.4328C19.389 56.9123 15.6912 58.0396 11.9202 58.804C5.42492 60.1207 3.4158e-07 54.6274 7.62939e-07 48L3.05176e-06 12C3.47312e-06 5.37258 5.37259 0 12 0H48Z" fill="url(#paint3_linear_44_29)"/>
<path d="M267.28 134V59.36H239.92V45.2H310.96V59.36H283.6V134H267.28ZM343.261 135.2C336.301 135.2 330.381 133.64 325.501 130.52C320.621 127.4 316.901 123.36 314.341 118.4C311.861 113.36 310.621 107.96 310.621 102.2C310.621 96.44 311.861 91.08 314.341 86.12C316.901 81.08 320.621 77 325.501 73.88C330.381 70.76 336.301 69.2 343.261 69.2C350.301 69.2 356.221 70.76 361.021 73.88C365.901 77 369.581 81.08 372.061 86.12C374.621 91.08 375.901 96.44 375.901 102.2C375.901 107.96 374.621 113.36 372.061 118.4C369.581 123.36 365.901 127.4 361.021 130.52C356.221 133.64 350.301 135.2 343.261 135.2ZM343.261 121.88C346.861 121.88 349.861 120.96 352.261 119.12C354.741 117.28 356.621 114.88 357.901 111.92C359.181 108.88 359.821 105.64 359.821 102.2C359.821 98.68 359.181 95.44 357.901 92.48C356.621 89.52 354.741 87.12 352.261 85.28C349.861 83.44 346.861 82.52 343.261 82.52C339.741 82.52 336.741 83.44 334.261 85.28C331.781 87.12 329.901 89.52 328.621 92.48C327.341 95.44 326.701 98.68 326.701 102.2C326.701 105.64 327.341 108.88 328.621 111.92C329.901 114.88 331.781 117.28 334.261 119.12C336.741 120.96 339.741 121.88 343.261 121.88ZM390.593 134V42.8H406.553V95.6L428.993 70.4H447.833L421.433 99.44L448.673 134H429.593L406.553 104.72V134H390.593ZM485.269 135.2C479.829 135.2 475.109 134.28 471.109 132.44C467.189 130.52 463.909 128 461.269 124.88C458.709 121.68 456.789 118.12 455.509 114.2C454.229 110.28 453.589 106.28 453.589 102.2C453.589 98.12 454.189 94.16 455.389 90.32C456.669 86.4 458.549 82.84 461.029 79.64C463.589 76.44 466.829 73.92 470.749 72.08C474.669 70.16 479.309 69.2 484.669 69.2C490.429 69.2 495.509 70.48 499.909 73.04C504.309 75.6 507.749 79.36 510.229 84.32C512.709 89.2 513.949 95.28 513.949 102.56V106.64H469.669C469.909 110.96 471.389 114.72 474.109 117.92C476.829 121.04 480.549 122.6 485.269 122.6C487.989 122.6 490.229 122.16 491.989 121.28C493.749 120.4 495.109 119.4 496.069 118.28C497.029 117.08 497.709 116.08 498.109 115.28C498.509 114.4 498.709 113.96 498.709 113.96H513.469C513.469 113.96 513.269 114.68 512.869 116.12C512.469 117.48 511.709 119.24 510.589 121.4C509.549 123.48 507.989 125.6 505.909 127.76C503.829 129.84 501.109 131.6 497.749 133.04C494.389 134.48 490.229 135.2 485.269 135.2ZM469.669 96.2H498.589C498.349 91.24 496.869 87.56 494.149 85.16C491.429 82.76 488.229 81.56 484.549 81.56C480.469 81.56 477.069 82.88 474.349 85.52C471.629 88.08 470.069 91.64 469.669 96.2ZM527.44 134V70.4H543.4V79.52H544.12C544.76 78.4 545.76 77.04 547.12 75.44C548.48 73.76 550.36 72.32 552.76 71.12C555.16 69.84 558.2 69.2 561.88 69.2C566.76 69.2 570.76 70.32 573.88 72.56C577.08 74.72 579.44 77.6 580.96 81.2C582.56 84.8 583.36 88.68 583.36 92.84V134H567.4V95C567.4 91.56 566.44 88.6 564.52 86.12C562.6 83.64 559.72 82.4 555.88 82.4C552.92 82.4 550.52 83.16 548.68 84.68C546.84 86.12 545.48 88 544.6 90.32C543.8 92.64 543.4 95.08 543.4 97.64V134H527.44ZM627.078 134V45.2H648.798L670.998 93.32L693.678 45.2H715.038V134H698.958V69.8L678.558 112.52H663.438L643.158 69.56V134H627.078ZM757.883 69.2C761.963 69.2 765.323 69.88 767.963 71.24C770.603 72.52 772.683 73.96 774.203 75.56C775.723 77.08 776.763 78.32 777.323 79.28H778.043V70.4H794.003V134H778.043V125.12H777.323C776.763 126.08 775.723 127.36 774.203 128.96C772.683 130.56 770.603 132 767.963 133.28C765.323 134.56 761.963 135.2 757.883 135.2C753.163 135.2 749.043 134.28 745.523 132.44C742.003 130.52 739.043 128 736.643 124.88C734.323 121.68 732.563 118.12 731.363 114.2C730.243 110.28 729.683 106.28 729.683 102.2C729.683 98.12 730.243 94.12 731.363 90.2C732.563 86.28 734.323 82.76 736.643 79.64C739.043 76.44 742.003 73.92 745.523 72.08C749.043 70.16 753.163 69.2 757.883 69.2ZM762.083 82.28C758.483 82.28 755.443 83.28 752.963 85.28C750.563 87.2 748.763 89.68 747.563 92.72C746.363 95.76 745.763 98.92 745.763 102.2C745.763 105.48 746.363 108.64 747.563 111.68C748.763 114.72 750.563 117.24 752.963 119.24C755.443 121.16 758.483 122.12 762.083 122.12C765.683 122.12 768.683 121.16 771.083 119.24C773.483 117.24 775.283 114.72 776.483 111.68C777.683 108.64 778.283 105.48 778.283 102.2C778.283 98.92 777.683 95.76 776.483 92.72C775.283 89.68 773.483 87.2 771.083 85.28C768.683 83.28 765.683 82.28 762.083 82.28ZM840.953 135.2C835.513 135.2 830.753 134.28 826.673 132.44C822.593 130.52 819.193 128 816.473 124.88C813.753 121.68 811.713 118.12 810.353 114.2C809.073 110.28 808.433 106.28 808.433 102.2C808.433 98.12 809.073 94.12 810.353 90.2C811.713 86.28 813.713 82.76 816.353 79.64C819.073 76.44 822.473 73.92 826.553 72.08C830.633 70.16 835.433 69.2 840.953 69.2C846.393 69.2 850.913 70 854.513 71.6C858.113 73.2 860.953 75.2 863.033 77.6C865.193 80 866.793 82.4 867.833 84.8C868.873 87.12 869.553 89.08 869.873 90.68C870.193 92.28 870.353 93.08 870.353 93.08H855.353C855.353 93.08 855.193 92.56 854.873 91.52C854.553 90.4 853.913 89.12 852.953 87.68C851.993 86.24 850.553 84.96 848.633 83.84C846.793 82.72 844.313 82.16 841.193 82.16C837.513 82.16 834.393 83.12 831.833 85.04C829.353 86.88 827.473 89.32 826.193 92.36C824.913 95.4 824.273 98.68 824.273 102.2C824.273 105.72 824.913 109 826.193 112.04C827.473 115.08 829.353 117.56 831.833 119.48C834.393 121.32 837.513 122.24 841.193 122.24C844.313 122.24 846.793 121.68 848.633 120.56C850.553 119.44 851.993 118.16 852.953 116.72C853.913 115.28 854.553 114.04 854.873 113C855.193 111.88 855.353 111.32 855.353 111.32H870.353C870.353 111.32 870.193 112.12 869.873 113.72C869.553 115.32 868.873 117.32 867.833 119.72C866.793 122.04 865.193 124.4 863.033 126.8C860.953 129.2 858.113 131.2 854.513 132.8C850.913 134.4 846.393 135.2 840.953 135.2ZM885.476 134V42.8H901.436V79.52H902.156C902.796 78.4 903.796 77.04 905.156 75.44C906.516 73.76 908.396 72.32 910.796 71.12C913.196 69.84 916.236 69.2 919.916 69.2C924.796 69.2 928.796 70.32 931.916 72.56C935.116 74.72 937.476 77.6 938.996 81.2C940.596 84.8 941.396 88.68 941.396 92.84V134H925.436V95C925.436 91.56 924.476 88.6 922.556 86.12C920.636 83.64 917.756 82.4 913.916 82.4C910.956 82.4 908.556 83.16 906.716 84.68C904.876 86.12 903.516 88 902.636 90.32C901.836 92.64 901.436 95.08 901.436 97.64V134H885.476ZM965.829 60.56C963.029 60.56 960.709 59.64 958.869 57.8C957.109 55.96 956.229 53.76 956.229 51.2C956.229 48.64 957.109 46.44 958.869 44.6C960.709 42.76 963.029 41.84 965.829 41.84C968.629 41.84 970.949 42.76 972.789 44.6C974.629 46.44 975.549 48.64 975.549 51.2C975.549 53.76 974.629 55.96 972.789 57.8C970.949 59.64 968.629 60.56 965.829 60.56ZM957.909 134V70.4H973.869V134H957.909ZM990.448 134V70.4H1006.41V79.52H1007.13C1007.77 78.4 1008.77 77.04 1010.13 75.44C1011.49 73.76 1013.37 72.32 1015.77 71.12C1018.17 69.84 1021.21 69.2 1024.89 69.2C1029.77 69.2 1033.77 70.32 1036.89 72.56C1040.09 74.72 1042.45 77.6 1043.97 81.2C1045.57 84.8 1046.37 88.68 1046.37 92.84V134H1030.41V95C1030.41 91.56 1029.45 88.6 1027.53 86.12C1025.61 83.64 1022.73 82.4 1018.89 82.4C1015.93 82.4 1013.53 83.16 1011.69 84.68C1009.85 86.12 1008.49 88 1007.61 90.32C1006.81 92.64 1006.41 95.08 1006.41 97.64V134H990.448ZM1091.48 135.2C1086.04 135.2 1081.32 134.28 1077.32 132.44C1073.4 130.52 1070.12 128 1067.48 124.88C1064.92 121.68 1063 118.12 1061.72 114.2C1060.44 110.28 1059.8 106.28 1059.8 102.2C1059.8 98.12 1060.4 94.16 1061.6 90.32C1062.88 86.4 1064.76 82.84 1067.24 79.64C1069.8 76.44 1073.04 73.92 1076.96 72.08C1080.88 70.16 1085.52 69.2 1090.88 69.2C1096.64 69.2 1101.72 70.48 1106.12 73.04C1110.52 75.6 1113.96 79.36 1116.44 84.32C1118.92 89.2 1120.16 95.28 1120.16 102.56V106.64H1075.88C1076.12 110.96 1077.6 114.72 1080.32 117.92C1083.04 121.04 1086.76 122.6 1091.48 122.6C1094.2 122.6 1096.44 122.16 1098.2 121.28C1099.96 120.4 1101.32 119.4 1102.28 118.28C1103.24 117.08 1103.92 116.08 1104.32 115.28C1104.72 114.4 1104.92 113.96 1104.92 113.96H1119.68C1119.68 113.96 1119.48 114.68 1119.08 116.12C1118.68 117.48 1117.92 119.24 1116.8 121.4C1115.76 123.48 1114.2 125.6 1112.12 127.76C1110.04 129.84 1107.32 131.6 1103.96 133.04C1100.6 134.48 1096.44 135.2 1091.48 135.2ZM1075.88 96.2H1104.8C1104.56 91.24 1103.08 87.56 1100.36 85.16C1097.64 82.76 1094.44 81.56 1090.76 81.56C1086.68 81.56 1083.28 82.88 1080.56 85.52C1077.84 88.08 1076.28 91.64 1075.88 96.2Z" fill="url(#paint4_linear_44_29)"/>
<defs>
<linearGradient id="paint0_linear_44_29" x1="58.3371" y1="122.382" x2="180.022" y2="124.404" gradientUnits="userSpaceOnUse">
<stop stop-color="#BCBCBC"/>
<stop offset="1" stop-color="white"/>
</linearGradient>
<linearGradient id="paint1_linear_44_29" x1="0.168536" y1="122.382" x2="61.0238" y2="122.888" gradientUnits="userSpaceOnUse">
<stop stop-color="#BCBCBC"/>
<stop offset="1" stop-color="white"/>
</linearGradient>
<linearGradient id="paint2_linear_44_29" x1="122.382" y1="59.8315" x2="122.888" y2="-1.02383" gradientUnits="userSpaceOnUse">
<stop stop-color="#BCBCBC"/>
<stop offset="1" stop-color="white"/>
</linearGradient>
<linearGradient id="paint3_linear_44_29" x1="27.809" y1="0.168538" x2="26.7977" y2="61.0112" gradientUnits="userSpaceOnUse">
<stop stop-color="#BCBCBC"/>
<stop offset="1" stop-color="white"/>
</linearGradient>
<linearGradient id="paint4_linear_44_29" x1="235" y1="90" x2="1127" y2="90" gradientUnits="userSpaceOnUse">
<stop stop-color="white"/>
<stop offset="1" stop-color="#A4A4A4" stop-opacity="0.66"/>
</linearGradient>
</defs>
</svg>
