<svg width="1030" height="178" viewBox="0 0 1030 178" fill="none" xmlns="http://www.w3.org/2000/svg">
<path d="M118 58C151.137 58 178 84.8629 178 118C178 151.137 151.137 178 118 178C84.8629 178 58 151.137 58 118C58 84.8629 84.8629 58 118 58Z" fill="url(#paint0_linear_44_29)"/>
<path d="M-9.06133e-07 70C-1.19583e-06 63.3726 5.42492 57.8793 11.9202 59.196C15.6912 59.9604 19.389 61.0877 22.961 62.5672C30.2405 65.5825 36.8549 70.0021 42.4264 75.5736C47.9979 81.1451 52.4175 87.7595 55.4328 95.039C58.4481 102.319 60 110.121 60 118C60 125.879 58.4481 133.681 55.4328 140.961C52.4175 148.241 47.9979 154.855 42.4264 160.426C36.8549 165.998 30.2405 170.417 22.961 173.433C19.389 174.912 15.6912 176.04 11.9202 176.804C5.42493 178.121 1.06737e-07 172.627 2.38403e-07 166L1.19201e-06 118L-9.06133e-07 70Z" fill="url(#paint1_linear_44_29)"/>
<path d="M70 9.44166e-06C63.3726 1.0021e-05 57.879 5.42528 59.1958 11.9206C61.5215 23.3922 67.1736 34.0264 75.5736 42.4264C86.8258 53.6786 102.087 60 118 60C133.913 60 149.174 53.6786 160.426 42.4264C168.826 34.0264 174.478 23.3922 176.804 11.9206C178.121 5.42528 172.627 7.41592e-06 166 7.15259e-06L118 5.24537e-06L70 9.44166e-06Z" fill="url(#paint2_linear_44_29)"/>
<path d="M48 0C54.6274 0 60.1207 5.42492 58.804 11.9202C58.0396 15.6912 56.9123 19.389 55.4328 22.961C52.4175 30.2405 47.9979 36.8549 42.4264 42.4264C36.8549 47.9979 30.2405 52.4175 22.961 55.4328C19.389 56.9123 15.6912 58.0396 11.9202 58.804C5.42492 60.1207 3.4158e-07 54.6274 7.62939e-07 48L3.05176e-06 12C3.47312e-06 5.37258 5.37259 0 12 0H48Z" fill="url(#paint3_linear_44_29)"/>
<path d="M263.75 127V60.5217H239.382V47.91H302.654V60.5217H278.286V127H263.75ZM331.423 128.069C325.224 128.069 319.951 126.679 315.605 123.901C311.258 121.122 307.945 117.523 305.665 113.106C303.456 108.617 302.352 103.807 302.352 98.6772C302.352 93.5471 303.456 88.7732 305.665 84.3555C307.945 79.8666 311.258 76.2328 315.605 73.4539C319.951 70.6751 325.224 69.2857 331.423 69.2857C337.693 69.2857 342.966 70.6751 347.241 73.4539C351.587 76.2328 354.865 79.8666 357.073 84.3555C359.354 88.7732 360.494 93.5471 360.494 98.6772C360.494 103.807 359.354 108.617 357.073 113.106C354.865 117.523 351.587 121.122 347.241 123.901C342.966 126.679 337.693 128.069 331.423 128.069ZM331.423 116.205C334.629 116.205 337.301 115.386 339.439 113.747C341.647 112.108 343.322 109.971 344.462 107.334C345.602 104.627 346.172 101.741 346.172 98.6772C346.172 95.5421 345.602 92.6564 344.462 90.0201C343.322 87.3838 341.647 85.2462 339.439 83.6074C337.301 81.9686 334.629 81.1492 331.423 81.1492C328.288 81.1492 325.616 81.9686 323.407 83.6074C321.198 85.2462 319.524 87.3838 318.383 90.0201C317.243 92.6564 316.673 95.5421 316.673 98.6772C316.673 101.741 317.243 104.627 318.383 107.334C319.524 109.971 321.198 112.108 323.407 113.747C325.616 115.386 328.288 116.205 331.423 116.205ZM373.579 127V45.7724H387.794V92.7989L407.781 70.3545H424.56L401.047 96.219L425.309 127H408.315L387.794 100.922V127H373.579ZM457.903 128.069C453.058 128.069 448.854 127.249 445.292 125.611C441.8 123.901 438.879 121.656 436.527 118.877C434.247 116.027 432.537 112.856 431.397 109.365C430.257 105.874 429.687 102.311 429.687 98.6772C429.687 95.0434 430.222 91.5164 431.29 88.0963C432.43 84.6049 434.105 81.4342 436.314 78.5841C438.594 75.734 441.48 73.4896 444.971 71.8508C448.462 70.1407 452.595 69.2857 457.369 69.2857C462.499 69.2857 467.023 70.4257 470.942 72.7058C474.861 74.9859 477.925 78.3347 480.134 82.7524C482.343 87.0987 483.447 92.5139 483.447 98.9979V102.632H444.009C444.223 106.479 445.541 109.828 447.963 112.678C450.386 115.457 453.699 116.847 457.903 116.847C460.326 116.847 462.321 116.455 463.888 115.671C465.456 114.887 466.667 113.996 467.522 112.999C468.377 111.93 468.983 111.039 469.339 110.327C469.695 109.543 469.874 109.151 469.874 109.151H483.02C483.02 109.151 482.841 109.793 482.485 111.075C482.129 112.286 481.452 113.854 480.455 115.778C479.528 117.63 478.139 119.519 476.286 121.442C474.434 123.295 472.011 124.862 469.019 126.145C466.026 127.428 462.321 128.069 457.903 128.069ZM444.009 93.3333H469.767C469.553 88.9157 468.235 85.6381 465.812 83.5005C463.39 81.3629 460.539 80.2942 457.262 80.2942C453.628 80.2942 450.6 81.4698 448.177 83.8211C445.755 86.1012 444.365 89.2719 444.009 93.3333ZM495.463 127V70.3545H509.677V78.4772H510.319C510.889 77.4797 511.779 76.2684 512.991 74.8434C514.202 73.3471 515.876 72.0645 518.014 70.9957C520.151 69.8557 522.859 69.2857 526.137 69.2857C530.483 69.2857 534.046 70.2832 536.824 72.2783C539.675 74.2021 541.777 76.7672 543.13 79.9735C544.555 83.1799 545.268 86.6356 545.268 90.3407V127H531.053V92.2645C531.053 89.2007 530.198 86.5644 528.488 84.3555C526.778 82.1467 524.213 81.0423 520.793 81.0423C518.156 81.0423 516.019 81.7192 514.38 83.073C512.741 84.3555 511.53 86.03 510.746 88.0963C510.034 90.1626 509.677 92.3358 509.677 94.6159V127H495.463ZM584.205 127V47.91H603.55L623.322 90.7682L643.522 47.91H662.547V127H648.225V69.8201L630.056 107.869H616.589L598.527 69.6063V127H584.205ZM700.707 69.2857C704.341 69.2857 707.334 69.8913 709.685 71.1026C712.037 72.2427 713.889 73.5252 715.243 74.9502C716.597 76.304 717.523 77.4084 718.022 78.2635H718.663V70.3545H732.878V127H718.663V119.091H718.022C717.523 119.946 716.597 121.086 715.243 122.511C713.889 123.936 712.037 125.219 709.685 126.359C707.334 127.499 704.341 128.069 700.707 128.069C696.504 128.069 692.834 127.249 689.699 125.611C686.564 123.901 683.927 121.656 681.79 118.877C679.724 116.027 678.156 112.856 677.087 109.365C676.09 105.874 675.591 102.311 675.591 98.6772C675.591 95.0434 676.09 91.4808 677.087 87.9894C678.156 84.498 679.724 81.3629 681.79 78.5841C683.927 75.734 686.564 73.4896 689.699 71.8508C692.834 70.1407 696.504 69.2857 700.707 69.2857ZM704.448 80.9354C701.242 80.9354 698.534 81.8261 696.325 83.6074C694.188 85.3174 692.585 87.5263 691.516 90.2338C690.447 92.9414 689.913 95.7559 689.913 98.6772C689.913 101.599 690.447 104.413 691.516 107.121C692.585 109.828 694.188 112.073 696.325 113.854C698.534 115.564 701.242 116.419 704.448 116.419C707.654 116.419 710.326 115.564 712.464 113.854C714.602 112.073 716.205 109.828 717.274 107.121C718.342 104.413 718.877 101.599 718.877 98.6772C718.877 95.7559 718.342 92.9414 717.274 90.2338C716.205 87.5263 714.602 85.3174 712.464 83.6074C710.326 81.8261 707.654 80.9354 704.448 80.9354ZM774.694 128.069C769.849 128.069 765.609 127.249 761.975 125.611C758.342 123.901 755.313 121.656 752.891 118.877C750.468 116.027 748.651 112.856 747.44 109.365C746.3 105.874 745.73 102.311 745.73 98.6772C745.73 95.0434 746.3 91.4808 747.44 87.9894C748.651 84.498 750.433 81.3629 752.784 78.5841C755.206 75.734 758.235 73.4896 761.869 71.8508C765.502 70.1407 769.778 69.2857 774.694 69.2857C779.539 69.2857 783.565 69.9982 786.771 71.4233C789.978 72.8483 792.507 74.6296 794.36 76.7672C796.283 78.9047 797.708 81.0423 798.635 83.1799C799.561 85.2462 800.167 86.9919 800.452 88.4169C800.737 89.842 800.879 90.5545 800.879 90.5545H787.519C787.519 90.5545 787.377 90.0913 787.092 89.1651C786.807 88.1675 786.237 87.0275 785.382 85.745C784.527 84.4624 783.244 83.3224 781.534 82.3248C779.895 81.3273 777.687 80.8285 774.908 80.8285C771.63 80.8285 768.851 81.6836 766.571 83.3936C764.362 85.0324 762.688 87.2056 761.548 89.9132C760.408 92.6208 759.838 95.5421 759.838 98.6772C759.838 101.812 760.408 104.734 761.548 107.441C762.688 110.149 764.362 112.358 766.571 114.068C768.851 115.707 771.63 116.526 774.908 116.526C777.687 116.526 779.895 116.027 781.534 115.03C783.244 114.032 784.527 112.892 785.382 111.61C786.237 110.327 786.807 109.223 787.092 108.296C787.377 107.299 787.519 106.8 787.519 106.8H800.879C800.879 106.8 800.737 107.513 800.452 108.938C800.167 110.363 799.561 112.144 798.635 114.281C797.708 116.348 796.283 118.45 794.36 120.587C792.507 122.725 789.978 124.506 786.771 125.931C783.565 127.356 779.539 128.069 774.694 128.069ZM814.348 127V45.7724H828.563V78.4772H829.204C829.774 77.4797 830.665 76.2684 831.876 74.8434C833.088 73.3471 834.762 72.0645 836.9 70.9957C839.037 69.8557 841.745 69.2857 845.022 69.2857C849.369 69.2857 852.931 70.2832 855.71 72.2783C858.56 74.2021 860.662 76.7672 862.016 79.9735C863.441 83.1799 864.154 86.6356 864.154 90.3407V127H849.939V92.2645C849.939 89.2007 849.084 86.5644 847.374 84.3555C845.664 82.1467 843.099 81.0423 839.678 81.0423C837.042 81.0423 834.905 81.7192 833.266 83.073C831.627 84.3555 830.416 86.03 829.632 88.0963C828.919 90.1626 828.563 92.3358 828.563 94.6159V127H814.348ZM885.915 61.5904C883.421 61.5904 881.355 60.771 879.716 59.1322C878.149 57.4934 877.365 55.534 877.365 53.2539C877.365 50.9739 878.149 49.0144 879.716 47.3756C881.355 45.7368 883.421 44.9174 885.915 44.9174C888.409 44.9174 890.475 45.7368 892.114 47.3756C893.753 49.0144 894.572 50.9739 894.572 53.2539C894.572 55.534 893.753 57.4934 892.114 59.1322C890.475 60.771 888.409 61.5904 885.915 61.5904ZM878.861 127V70.3545H893.076V127H878.861ZM907.842 127V70.3545H922.057V78.4772H922.698C923.268 77.4797 924.159 76.2684 925.37 74.8434C926.581 73.3471 928.256 72.0645 930.393 70.9957C932.531 69.8557 935.238 69.2857 938.516 69.2857C942.862 69.2857 946.425 70.2832 949.204 72.2783C952.054 74.2021 954.156 76.7672 955.51 79.9735C956.935 83.1799 957.647 86.6356 957.647 90.3407V127H943.432V92.2645C943.432 89.2007 942.577 86.5644 940.867 84.3555C939.157 82.1467 936.592 81.0423 933.172 81.0423C930.536 81.0423 928.398 81.7192 926.759 83.073C925.121 84.3555 923.909 86.03 923.125 88.0963C922.413 90.1626 922.057 92.3358 922.057 94.6159V127H907.842ZM997.827 128.069C992.982 128.069 988.778 127.249 985.215 125.611C981.724 123.901 978.802 121.656 976.451 118.877C974.171 116.027 972.461 112.856 971.321 109.365C970.181 105.874 969.611 102.311 969.611 98.6772C969.611 95.0434 970.145 91.5164 971.214 88.0963C972.354 84.6049 974.028 81.4342 976.237 78.5841C978.517 75.734 981.403 73.4896 984.894 71.8508C988.386 70.1407 992.518 69.2857 997.292 69.2857C1002.42 69.2857 1006.95 70.4257 1010.87 72.7058C1014.78 74.9859 1017.85 78.3347 1020.06 82.7524C1022.27 87.0987 1023.37 92.5139 1023.37 98.9979V102.632H983.933C984.146 106.479 985.464 109.828 987.887 112.678C990.31 115.457 993.623 116.847 997.827 116.847C1000.25 116.847 1002.24 116.455 1003.81 115.671C1005.38 114.887 1006.59 113.996 1007.45 112.999C1008.3 111.93 1008.91 111.039 1009.26 110.327C1009.62 109.543 1009.8 109.151 1009.8 109.151H1022.94C1022.94 109.151 1022.77 109.793 1022.41 111.075C1022.05 112.286 1021.38 113.854 1020.38 115.778C1019.45 117.63 1018.06 119.519 1016.21 121.442C1014.36 123.295 1011.93 124.862 1008.94 126.145C1005.95 127.428 1002.24 128.069 997.827 128.069ZM983.933 93.3333H1009.69C1009.48 88.9157 1008.16 85.6381 1005.74 83.5005C1003.31 81.3629 1000.46 80.2942 997.185 80.2942C993.552 80.2942 990.523 81.4698 988.101 83.8211C985.678 86.1012 984.289 89.2719 983.933 93.3333Z" fill="url(#paint4_linear_44_29)"/>
<defs>
<linearGradient id="paint0_linear_44_29" x1="58.3371" y1="122.382" x2="180.022" y2="124.404" gradientUnits="userSpaceOnUse">
<stop stop-color="#BCBCBC"/>
<stop offset="1" stop-color="white"/>
</linearGradient>
<linearGradient id="paint1_linear_44_29" x1="0.168536" y1="122.382" x2="61.0238" y2="122.888" gradientUnits="userSpaceOnUse">
<stop stop-color="#BCBCBC"/>
<stop offset="1" stop-color="white"/>
</linearGradient>
<linearGradient id="paint2_linear_44_29" x1="122.382" y1="59.8315" x2="122.888" y2="-1.02383" gradientUnits="userSpaceOnUse">
<stop stop-color="#BCBCBC"/>
<stop offset="1" stop-color="white"/>
</linearGradient>
<linearGradient id="paint3_linear_44_29" x1="27.809" y1="0.168538" x2="26.7977" y2="61.0112" gradientUnits="userSpaceOnUse">
<stop stop-color="#BCBCBC"/>
<stop offset="1" stop-color="white"/>
</linearGradient>
<linearGradient id="paint4_linear_44_29" x1="235" y1="87.5" x2="1030" y2="87.5" gradientUnits="userSpaceOnUse">
<stop stop-color="white"/>
<stop offset="1" stop-color="#A4A4A4" stop-opacity="0.66"/>
</linearGradient>
</defs>
</svg>
